<svg width="24.000000" height="24.000000" viewBox="0 0 24 24" fill="none" xmlns="http://www.w3.org/2000/svg" xmlns:xlink="http://www.w3.org/1999/xlink">
	<desc>
			Created with Pixso.
	</desc>
	<defs>
		<clipPath id="clip4_1129">
			<rect width="24.000000" height="24.000000" fill="white"/>
		</clipPath>
	</defs>
	<g clip-path="url(#clip4_1129)">
		<path d="M7.91 3.23013C8.06 3.08004 8.26 3 8.48 3L15.53 3C15.74 3 15.95 3.08004 16.1 3.23013L20.77 7.90272C20.92 8.05281 21 8.25292 21 8.47304L21 15.527C21 15.7371 20.92 15.9472 20.77 16.0973L16.1 20.7699C15.95 20.92 15.75 21 15.53 21L8.47 21C8.26 21 8.05 20.92 7.9 20.7699L3.23 16.0973C3.08 15.9472 3 15.7471 3 15.527L3 8.47304C3 8.26292 3.08 8.05281 3.23 7.90272L3.23 7.91273L7.91 3.23013ZM12 16L12.0083 16M12 8L12 13" stroke="#FFFFFF" stroke-width="1.500000" stroke-linejoin="round"/>
	</g>
</svg>
