<svg width="24.000000" height="24.000000" viewBox="0 0 24 24" fill="none" xmlns="http://www.w3.org/2000/svg" xmlns:xlink="http://www.w3.org/1999/xlink">
	<desc>
			Created with Pixso.
	</desc>
	<defs/>
	<path d="M7.96 20C6.11329 20 5.18993 20 4.60817 19.4363C4.59313 19.4217 4.57832 19.4069 4.56375 19.3918C4 18.8101 4 17.8867 4 16.04L4 12.96C4 11.1133 4 10.1899 4.56375 9.60817C4.57832 9.59313 4.59313 9.57832 4.60817 9.56375C5.18992 9 6.11328 9 7.96 9L8.35971 9C9.16073 9 9.56123 9 9.9224 9.14629C9.93211 9.15022 9.95143 9.15831 9.95143 9.15831L11.1599 10.1599L11.8401 10.8401L13.0486 11.8417C13.0486 11.8417 13.0679 11.8498 13.0776 11.8537C13.4388 12 13.8393 12 14.6403 12L16.04 12C17.8867 12 18.8101 12 19.3918 12.5637C19.4069 12.5783 19.4217 12.5931 19.4363 12.6082C20 13.1899 20 14.1133 20 15.96L20 16.04C20 17.8867 20 18.8101 19.4363 19.3918C19.4217 19.4069 19.4069 19.4217 19.3918 19.4363C18.8101 20 17.8867 20 16.04 20L7.96 20Z" stroke="#FFFFFF" stroke-width="2.000000"/>
	<path d="M18 12L18 7.96C18 6.11329 18 5.18993 17.4363 4.60817C17.4217 4.59313 17.4069 4.57832 17.3918 4.56375C16.8101 4 15.8867 4 14.04 4L9.96 4C8.11328 4 7.18991 4 6.60817 4.56375C6.59313 4.57832 6.57832 4.59313 6.56375 4.60817C6 5.18991 6 6.11328 6 7.96L6 9" stroke="#FFFFFF" stroke-width="2.000000"/>
</svg>
