<svg width="24.000000" height="24.000000" viewBox="0 0 24 24" fill="none" xmlns="http://www.w3.org/2000/svg" xmlns:xlink="http://www.w3.org/1999/xlink">
	<desc>
			Created with Pixso.
	</desc>
	<defs/>
	<path d="M13.08 3C16.7735 3 18.6202 3 19.7837 4.12749C19.8137 4.15665 19.8434 4.18627 19.8725 4.21635C21 5.37986 21 7.22658 21 10.92L21 13.08C21 16.7735 21 18.6202 19.8725 19.7837C19.8434 19.8137 19.8137 19.8434 19.7837 19.8725C18.6202 21 16.7735 21 13.08 21L10.92 21C7.22658 21 5.37986 21 4.21635 19.8725C4.18627 19.8434 4.15665 19.8137 4.12749 19.7837C3 18.6202 3 16.7735 3 13.08L3 10.92C3 7.22656 3 5.37984 4.12749 4.21635C4.15665 4.18627 4.18627 4.15665 4.21635 4.12749C5.37984 3 7.22656 3 10.92 3L13.08 3Z" stroke="#FFFFFF" stroke-width="2.000000"/>
	<path d="M18.9996 13.5853Q18.6122 13.1979 18.4454 13.0365Q18.1602 12.7606 17.9536 12.5865Q17.6885 12.363 17.4507 12.2193Q17.1638 12.0459 16.8665 11.9562Q16.6546 11.8923 16.438 11.8603Q16.2213 11.8284 16 11.8284Q15.7787 11.8284 15.562 11.8603Q15.3454 11.8923 15.1335 11.9562Q14.8362 12.0459 14.5493 12.2193Q14.3115 12.363 14.0464 12.5865Q13.8398 12.7606 13.5546 13.0365Q13.386 13.1997 12.9921 13.5936Q12.5133 14.0724 12.3645 14.1954Q12.354 14.2041 12.3443 14.2119Q12.3383 14.2011 12.3317 14.1891Q12.2393 14.0196 11.9726 13.3973Q11.594 12.5139 11.4286 12.1498Q11.1519 11.5404 10.9338 11.1586Q10.6543 10.6694 10.3602 10.354Q9.99618 9.96352 9.54843 9.76361Q9.22821 9.62064 8.89289 9.55606Q8.55758 9.49149 8.20717 9.50531Q7.7172 9.52463 7.23418 9.75199Q6.84399 9.93565 6.40277 10.2861Q6.05845 10.5595 5.57523 11.0225Q5.37841 11.2111 5 11.5869L5 13.0799Q5 13.8489 5.00345 14.4107L6.02113 13.393Q6.68563 12.7285 6.95897 12.4666Q7.37507 12.0679 7.64658 11.8522Q8.07491 11.5121 8.28597 11.5038Q8.40277 11.4991 8.51454 11.5207Q8.62632 11.5422 8.73306 11.5899Q8.92594 11.676 9.19729 12.1509Q9.36931 12.4519 9.60756 12.9767Q9.76408 13.3214 10.1343 14.1851Q10.4382 14.8943 10.5759 15.1468Q10.8752 15.6955 11.2847 15.949Q11.4412 16.0459 11.6098 16.1117L11.6098 16.1117Q11.7784 16.1775 11.9591 16.2123Q12.1398 16.2471 12.3208 16.2486L12.3208 16.2486Q12.5018 16.2501 12.6831 16.2183Q13.1574 16.135 13.6391 15.7367Q13.8607 15.5534 14.4063 15.0078Q15.1007 14.3135 15.3353 14.1158Q15.5781 13.9111 15.7112 13.871Q15.8556 13.8274 16 13.8274Q16.1444 13.8274 16.2888 13.871Q16.4219 13.9111 16.6647 14.1158Q16.8993 14.3135 17.5937 15.0078L18.946 16.3602Q18.9708 15.9633 18.983 15.4724Q18.9974 14.893 18.9996 13.5853Z" clip-rule="evenodd" fill-rule="evenodd" fill="#FFFFFF" fill-opacity="1.000000"/>
	<circle r="1.500000" transform="matrix(1 0 0 1 16.5 7.5)" fill="#FFFFFF"/>
</svg>
