<svg width="20.000000" height="25.000000" viewBox="0 0 20 25" fill="none" xmlns="http://www.w3.org/2000/svg" xmlns:xlink="http://www.w3.org/1999/xlink">
	<desc>
			Created with Pixso.
	</desc>
	<defs/>
	<path id="Vector" d="M16 1.92308L16 0L4 0L4 1.92308L0 1.92308L0 25L20 25L20 1.92308L16 1.92308ZM14 1.92308L14 3.84615L6 3.84615L6 1.92308L14 1.92308ZM18 23.0769L2 23.0769L2 3.84615L4 3.84615L4 5.76923L16 5.76923L16 3.84615L18 3.84615L18 23.0769Z" fill-rule="nonzero" fill="#FFFFFF"/>
	<path id="Vector" d="M5 8.65385L15 8.65385L15 10.5769L5 10.5769L5 8.65385Z" fill-rule="evenodd" fill="#FFFFFF"/>
	<path id="Vector" d="M5 13.4615L15 13.4615L15 15.3846L5 15.3846L5 13.4615Z" fill-rule="evenodd" fill="#FFFFFF"/>
	<path id="Vector" d="M5 18.2692L15 18.2692L15 20.1923L5 20.1923L5 18.2692Z" fill-rule="evenodd" fill="#FFFFFF"/>
</svg>
