<svg width="25.000153" height="25.000000" viewBox="0 0 25.0002 25" fill="none" xmlns="http://www.w3.org/2000/svg" xmlns:xlink="http://www.w3.org/1999/xlink">
	<desc>
			Created with Pixso.
	</desc>
	<defs>
		<filter id="filter_2_2_dd" x="0.000000" y="0.000000" width="25.000153" height="25.000000" filterUnits="userSpaceOnUse" color-interpolation-filters="sRGB">
			<feFlood flood-opacity="0" result="BackgroundImageFix"/>
			<feColorMatrix in="SourceAlpha" type="matrix" values="0 0 0 0 0 0 0 0 0 0 0 0 0 0 0 0 0 0 127 0" result="hardAlpha"/>
			<feOffset dx="0" dy="4"/>
			<feGaussianBlur stdDeviation="1.33333"/>
			<feComposite in2="hardAlpha" operator="out" k2="-1" k3="1"/>
			<feColorMatrix type="matrix" values="0 0 0 0 0 0 0 0 0 0 0 0 0 0 0 0 0 0 0.25 0"/>
			<feBlend mode="normal" in2="BackgroundImageFix" result="effect_dropShadow_1"/>
			<feBlend mode="normal" in="SourceGraphic" in2="effect_dropShadow_1" result="shape"/>
		</filter>
	</defs>
	<g filter="url(#filter_2_2_dd)">
		<path id="Vector" d="M19.462 1.53821C18.7956 0.873368 17.8926 0.5 16.9513 0.5C16.0099 0.5 15.107 0.873368 14.4405 1.53821L5.18974 10.7889C5.10695 10.8765 5.0535 10.9878 5.03682 11.1071L4.50341 15.9077C4.49513 15.9823 4.50267 16.0577 4.52553 16.1292C4.54839 16.2006 4.58606 16.2664 4.63608 16.3223C4.6861 16.3782 4.74734 16.4229 4.81581 16.4535C4.88429 16.4842 4.95845 16.5 5.03346 16.5C5.05306 16.5 5.07265 16.4989 5.09213 16.4966L9.89276 15.9632C10.0121 15.9466 10.1234 15.8931 10.211 15.8103L19.462 6.5595C20.1268 5.89307 20.5002 4.99017 20.5002 4.04885C20.5002 3.10754 20.1268 2.20464 19.462 1.53821ZM9.83409 14.6789L8.45476 13.2996L16.2349 5.51954L17.6143 6.89885L9.83409 14.6789ZM7.70047 12.5453L6.32115 11.166L14.1013 3.38595L15.4806 4.76526L7.70047 12.5453ZM5.97438 12.3278L8.67228 15.0257L5.63722 15.3629L5.97438 12.3278ZM18.7079 5.80539L18.3685 6.14457L14.8556 2.63167L15.1949 2.29232C15.6608 1.82649 16.2927 1.56479 16.9515 1.5648C17.6103 1.56482 18.2421 1.82654 18.708 2.2924C19.1738 2.75827 19.4355 3.3901 19.4355 4.04891C19.4355 4.70772 19.1738 5.33955 18.7079 5.80539Z" fill-rule="nonzero" fill="#FFFFFF"/>
	</g>
	<path id="Vector" d="M16.9513 0.5C16.0099 0.5 15.107 0.873368 14.4405 1.53821L5.18974 10.7889C5.10695 10.8765 5.0535 10.9878 5.03682 11.1071L4.50341 15.9077C4.49513 15.9823 4.50267 16.0577 4.52553 16.1292C4.54839 16.2006 4.58606 16.2664 4.63608 16.3223C4.6861 16.3782 4.74734 16.4229 4.81581 16.4535C4.88429 16.4842 4.95845 16.5 5.03346 16.5C5.05306 16.5 5.07265 16.4989 5.09213 16.4966L9.89276 15.9632C10.0121 15.9466 10.1234 15.8931 10.211 15.8103L19.462 6.5595C20.1268 5.89307 20.5002 4.99017 20.5002 4.04885C20.5002 3.10754 20.1268 2.20464 19.462 1.53821C18.7956 0.873368 17.8926 0.5 16.9513 0.5ZM8.45476 13.2996L16.2349 5.51954L17.6143 6.89885L9.83409 14.6789L8.45476 13.2996ZM6.32115 11.166L14.1013 3.38595L15.4806 4.76526L7.70047 12.5453L6.32115 11.166ZM8.67228 15.0257L5.63722 15.3629L5.97438 12.3278L8.67228 15.0257ZM18.3685 6.14457L14.8556 2.63167L15.1949 2.29232C15.6608 1.82649 16.2927 1.56479 16.9515 1.5648C17.6103 1.56482 18.2421 1.82654 18.708 2.2924C19.1738 2.75827 19.4355 3.3901 19.4355 4.04891C19.4355 4.70772 19.1738 5.33955 18.7079 5.80539L18.3685 6.14457Z" stroke="#FFFFFF"/>
</svg>
